<svg xmlns="http://www.w3.org/2000/svg" width="960" height="224" viewBox="0 0 960 224">
  <g fill="none" stroke="#171a18" stroke-width="1.25" stroke-linecap="round" stroke-linejoin="round" opacity="0.14">
    <path d="M0 0 C82 1 154 -1 238 0 S405 1 488 0 S651 -1 728 0 S883 1 960 0"/>
    <path d="M0 56 C76 55 147 57 228 56 S392 55 474 56 S636 57 716 56 S879 55 960 56"/>
    <path d="M0 112 C70 113 150 111 230 112 S393 113 478 112 S640 111 721 112 S877 113 960 112"/>
    <path d="M0 168 C79 167 154 169 236 168 S397 167 482 168 S645 169 725 168 S880 167 960 168"/>
    <path d="M0 224 C78 223 153 225 236 224 S398 223 483 224 S645 225 726 224 S881 223 960 224"/>

    <path d="M118 0 C117 14 120 29 119 43 S118 51 120 56"/>
    <path d="M247 0 C248 13 245 28 247 42 S248 51 246 56"/>
    <path d="M374 0 C372 15 375 27 373 40 S374 50 375 56"/>
    <path d="M503 0 C505 14 502 28 504 41 S503 51 502 56"/>
    <path d="M626 0 C624 13 627 29 625 42 S626 51 628 56"/>
    <path d="M756 0 C757 14 754 27 756 41 S757 50 755 56"/>
    <path d="M883 0 C881 15 884 29 883 43 S882 51 884 56"/>

    <path d="M58 56 C60 70 57 83 59 96 S58 105 57 112"/>
    <path d="M186 56 C184 69 187 84 185 98 S186 106 188 112"/>
    <path d="M312 56 C313 71 310 84 312 97 S313 106 311 112"/>
    <path d="M441 56 C439 70 442 84 440 98 S441 106 442 112"/>
    <path d="M568 56 C570 69 567 84 569 97 S568 106 567 112"/>
    <path d="M694 56 C692 71 695 85 693 98 S694 106 696 112"/>
    <path d="M823 56 C824 69 821 83 823 97 S824 106 822 112"/>
    <path d="M946 56 C944 70 947 84 945 98 S946 106 948 112"/>

    <path d="M124 112 C126 126 122 140 124 153 S125 162 123 168"/>
    <path d="M252 112 C250 125 253 140 251 154 S252 162 254 168"/>
    <path d="M382 112 C383 127 380 141 382 154 S383 162 381 168"/>
    <path d="M508 112 C506 126 509 140 507 153 S508 162 510 168"/>
    <path d="M637 112 C639 125 636 140 638 154 S637 162 636 168"/>
    <path d="M765 112 C763 127 766 141 764 154 S765 162 767 168"/>
    <path d="M891 112 C892 125 889 139 891 153 S892 162 890 168"/>

    <path d="M63 168 C61 182 64 196 62 209 S63 218 65 224"/>
    <path d="M192 168 C194 181 191 196 193 210 S192 218 191 224"/>
    <path d="M320 168 C318 183 321 197 319 210 S320 218 322 224"/>
    <path d="M449 168 C450 181 447 195 449 209 S450 218 448 224"/>
    <path d="M575 168 C573 182 576 196 574 210 S575 218 577 224"/>
    <path d="M704 168 C706 181 703 196 705 209 S704 218 703 224"/>
    <path d="M832 168 C830 183 833 197 831 210 S832 218 834 224"/>
  </g>
</svg>
